<?xml version="1.0" encoding="UTF-8"?>
<svg viewBox="0 0 580 890" width="580" height="890" xmlns="http://www.w3.org/2000/svg" font-family="-apple-system,BlinkMacSystemFont,'Segoe UI',Roboto,sans-serif" style="background:#fff">
    <path d="M235,44.0 L272.5,44.0 L272.5,84.0 L310,84.0" fill="none" stroke="#3B6FA0" stroke-width="1.2"/>
    <path d="M235,44.0 L272.5,44.0 L272.5,124.0 L310,124.0" fill="none" stroke="#3B6FA0" stroke-width="1.2"/>
    <path d="M310,84.0 L272.5,84.0 L272.5,164.0 L235,164.0" fill="none" stroke="#3B6FA0" stroke-width="1.2"/>
    <path d="M520,124.0 L565,124.0 L565,342 L361.0,342 L361.0,350" fill="none" stroke="#3B6FA0" stroke-width="1.2" stroke-dasharray="5,4"/>
    <path d="M235,164.0 L272.5,164.0 L272.5,204.0 L310,204.0" fill="none" stroke="#3B6FA0" stroke-width="1.2"/>
    <path d="M235,164.0 L272.5,164.0 L272.5,244.0 L310,244.0" fill="none" stroke="#3B6FA0" stroke-width="1.2"/>
    <path d="M310,204.0 L272.5,204.0 L272.5,284.0 L235,284.0" fill="none" stroke="#3B6FA0" stroke-width="1.2"/>
    <path d="M310,244.0 L272.5,244.0 L272.5,284.0 L235,284.0" fill="none" stroke="#3B6FA0" stroke-width="1.2"/>
    <path d="M235,284.0 L272.5,284.0 L272.5,324.0 L310,324.0" fill="none" stroke="#3B6FA0" stroke-width="1.2"/>
    <path d="M415.0,338 L415.0,344.0 L322.0,344.0 L322.0,350" fill="none" stroke="#3B6FA0" stroke-width="1.2"/>
    <path d="M218.0,378 L218.0,404.0 L130.0,404.0 L130.0,430" fill="none" stroke="#3B6FA0" stroke-width="1.2"/>
    <path d="M322.0,378 L322.0,484.0 L415.0,484.0 L415.0,590" fill="none" stroke="#3B6FA0" stroke-width="1.2"/>
    <path d="M130.0,458 L130.0,510" fill="none" stroke="#3B6FA0" stroke-width="1.2"/>
    <path d="M415.0,618 L415.0,670" fill="none" stroke="#3B6FA0" stroke-width="1.2"/>
    <path d="M310,684.0 L110.0,684.0 L110.0,750" fill="none" stroke="#3B6FA0" stroke-width="1.2"/>
    <path d="M310,684.0 L290.0,684.0 L290.0,750" fill="none" stroke="#3B6FA0" stroke-width="1.2"/>
    <path d="M415.0,698 L415.0,724.0 L470.0,724.0 L470.0,750" fill="none" stroke="#3B6FA0" stroke-width="1.2"/>
    <path d="M110.0,778 L110.0,790" fill="none" stroke="#3B6FA0" stroke-width="1.2"/>
    <path d="M290.0,778 L290.0,790" fill="none" stroke="#3B6FA0" stroke-width="1.2"/>
    <path d="M470.0,778 L470.0,790" fill="none" stroke="#3B6FA0" stroke-width="1.2"/>
    <line x1="10" y1="564.0" x2="570" y2="564.0" stroke="#ccc" stroke-width="1" stroke-dasharray="6,4"/>
    <text x="290.0" y="558.0" text-anchor="middle" fill="#aaa" font-size="8" font-style="italic">Included in the automatic processing pipeline</text>
    <rect x="25" y="30" width="210" height="28" rx="7" fill="#3B6FA0"/>
    <text x="130.0" y="48.0" text-anchor="middle" fill="#fff" font-size="7.0" font-weight="bold">Run Experiment (protocol_XX.m)</text>
    <circle cx="241" cy="39" r="8" fill="#fff" stroke="#999" stroke-width="1"/>
    <text x="241" y="43" text-anchor="middle" fill="#333" font-size="7.5" font-weight="bold">A</text>
    <rect x="310" y="70" width="210" height="28" rx="7" fill="#f0f0f0" stroke="#ccc" stroke-width="1"/>
    <text x="415.0" y="88.0" text-anchor="middle" fill="#555" font-size="9.5" font-weight="bold">UFMF Video (.ufmf)</text>
    <circle cx="526" cy="79" r="8" fill="#fff" stroke="#999" stroke-width="1"/>
    <text x="526" y="83" text-anchor="middle" fill="#333" font-size="7.5" font-weight="bold">B</text>
    <rect x="310" y="110" width="210" height="28" rx="7" fill="#f0f0f0" stroke="#ccc" stroke-width="1"/>
    <text x="415.0" y="128.0" text-anchor="middle" fill="#555" font-size="9.5" font-weight="bold">LOG.mat</text>
    <circle cx="526" cy="119" r="8" fill="#fff" stroke="#999" stroke-width="1"/>
    <text x="526" y="123" text-anchor="middle" fill="#333" font-size="7.5" font-weight="bold">C</text>
    <circle cx="526" cy="135" r="8" fill="#fff" stroke="#999" stroke-width="1"/>
    <text x="526" y="139" text-anchor="middle" fill="#333" font-size="7.5" font-weight="bold">D</text>
    <rect x="25" y="150" width="210" height="28" rx="7" fill="#5A8EBE"/>
    <text x="130.0" y="168.0" text-anchor="middle" fill="#fff" font-size="7.0" font-weight="bold">FlyTracker (offline tracking)</text>
    <circle cx="241" cy="159" r="8" fill="#fff" stroke="#999" stroke-width="1"/>
    <text x="241" y="163" text-anchor="middle" fill="#333" font-size="7.5" font-weight="bold">E</text>
    <rect x="310" y="190" width="210" height="28" rx="7" fill="#f0f0f0" stroke="#ccc" stroke-width="1"/>
    <text x="415.0" y="208.0" text-anchor="middle" fill="#555" font-size="9.5" font-weight="bold">feat.mat</text>
    <circle cx="526" cy="199" r="8" fill="#fff" stroke="#999" stroke-width="1"/>
    <text x="526" y="203" text-anchor="middle" fill="#333" font-size="7.5" font-weight="bold">F</text>
    <rect x="310" y="230" width="210" height="28" rx="7" fill="#f0f0f0" stroke="#ccc" stroke-width="1"/>
    <text x="415.0" y="248.0" text-anchor="middle" fill="#555" font-size="9.5" font-weight="bold">trx.mat</text>
    <circle cx="526" cy="239" r="8" fill="#fff" stroke="#999" stroke-width="1"/>
    <text x="526" y="243" text-anchor="middle" fill="#333" font-size="7.5" font-weight="bold">G</text>
    <rect x="25" y="270" width="210" height="28" rx="7" fill="#5A8EBE"/>
    <text x="130.0" y="288.0" text-anchor="middle" fill="#fff" font-size="7.0" font-weight="bold">combine_data_one_cohort(feat, trx)</text>
    <text x="25" y="308" fill="#aaa" font-size="7.0" font-style="italic">Remove bad tracking | Interpolate gaps | Compute</text>
    <text x="25" y="318" fill="#aaa" font-size="7.0" font-style="italic">metrics</text>
    <rect x="310" y="310" width="210" height="28" rx="7" fill="#f0f0f0" stroke="#ccc" stroke-width="1"/>
    <text x="415.0" y="328.0" text-anchor="middle" fill="#555" font-size="9.5" font-weight="bold">comb_data struct</text>
    <circle cx="526" cy="319" r="8" fill="#fff" stroke="#999" stroke-width="1"/>
    <text x="526" y="323" text-anchor="middle" fill="#333" font-size="7.5" font-weight="bold">H</text>
    <rect x="140" y="350" width="260" height="28" rx="7" fill="#3B6FA0"/>
    <text x="270.0" y="363.0" text-anchor="middle" fill="#fff" font-size="7.5" font-weight="bold">Save *.mat results files</text>
    <text x="270.0" y="375.0" text-anchor="middle" fill="#dde8f3" font-size="7.0">(LOG + comb_data + n_fly_data)</text>
    <circle cx="406" cy="359" r="8" fill="#fff" stroke="#999" stroke-width="1"/>
    <text x="406" y="363" text-anchor="middle" fill="#333" font-size="7.5" font-weight="bold">I</text>
    <circle cx="406" cy="375" r="8" fill="#fff" stroke="#999" stroke-width="1"/>
    <text x="406" y="379" text-anchor="middle" fill="#333" font-size="7.5" font-weight="bold">J</text>
    <rect x="25" y="430" width="210" height="28" rx="7" fill="#5A8EBE"/>
    <text x="130.0" y="448.0" text-anchor="middle" fill="#fff" font-size="7.0" font-weight="bold">comb_data_one_cohort_cond(LOG, comb_data)</text>
    <text x="25" y="468" fill="#aaa" font-size="7.0" font-style="italic">Parse data by condition using LOG frame indices</text>
    <text x="25" y="478" fill="#aaa" font-size="7.0" font-style="italic">(+300 frame (10s) pre buffer)</text>
    <rect x="25" y="510" width="210" height="28" rx="7" fill="#f0f0f0" stroke="#ccc" stroke-width="1"/>
    <text x="130.0" y="528.0" text-anchor="middle" fill="#555" font-size="7.4" font-weight="bold">DATA struct (single cohort)</text>
    <text x="25" y="548" fill="#aaa" font-size="7.0" font-style="italic">Used only for quick per-cohort review plots</text>
    <rect x="310" y="590" width="210" height="28" rx="7" fill="#3B6FA0"/>
    <text x="415.0" y="608.0" text-anchor="middle" fill="#fff" font-size="7.0" font-weight="bold">comb_data_across_cohorts_cond(protocol_dir)</text>
    <text x="310" y="628" fill="#aaa" font-size="7.0" font-style="italic">Parse data by condition as before and merge all</text>
    <text x="310" y="638" fill="#aaa" font-size="7.0" font-style="italic">experiments for one protocol</text>
    <rect x="310" y="670" width="210" height="28" rx="7" fill="#f0f0f0" stroke="#ccc" stroke-width="1"/>
    <text x="415.0" y="683.0" text-anchor="middle" fill="#555" font-size="7.0" font-weight="bold">DATA.(strain).(sex)(cohort_idx)</text>
    <text x="415.0" y="695.0" text-anchor="middle" fill="#888" font-size="6.5">.(condition).(metric)</text>
    <circle cx="526" cy="679" r="8" fill="#fff" stroke="#999" stroke-width="1"/>
    <text x="526" y="683" text-anchor="middle" fill="#333" font-size="7.5" font-weight="bold">K</text>
    <circle cx="526" cy="695" r="8" fill="#fff" stroke="#999" stroke-width="1"/>
    <text x="526" y="699" text-anchor="middle" fill="#333" font-size="7.5" font-weight="bold">L</text>
    <circle cx="526" cy="711" r="8" fill="#fff" stroke="#999" stroke-width="1"/>
    <text x="526" y="715" text-anchor="middle" fill="#333" font-size="7.5" font-weight="bold">M</text>
    <circle cx="526" cy="727" r="8" fill="#fff" stroke="#999" stroke-width="1"/>
    <text x="526" y="731" text-anchor="middle" fill="#333" font-size="7.5" font-weight="bold">N</text>
    <text x="310" y="708" fill="#aaa" font-size="7.0" font-style="italic">Main data structure used for downstream analysis</text>
    <rect x="40.0" y="750" width="140" height="28" rx="7" fill="#7BADD4"/>
    <text x="110.0" y="768.0" text-anchor="middle" fill="#fff" font-size="8.0" font-weight="bold">Analysis scripts (MATLAB)</text>
    <text x="40.0" y="788" fill="#aaa" font-size="7.0" font-style="italic">This is where the analysis of</text>
    <text x="40.0" y="798" fill="#aaa" font-size="7.0" font-style="italic">different protocols diverges</text>
    <rect x="220.0" y="750" width="140" height="28" rx="7" fill="#7BADD4"/>
    <text x="290.0" y="768.0" text-anchor="middle" fill="#fff" font-size="9.1" font-weight="bold">preprocess.py (Python)</text>
    <rect x="400.0" y="750" width="140" height="28" rx="7" fill="#7BADD4"/>
    <text x="470.0" y="768.0" text-anchor="middle" fill="#fff" font-size="7.0" font-weight="bold">export_trajectory_data.m (MATLAB)</text>
    <rect x="40.0" y="790" width="140" height="28" rx="7" fill="#f0f0f0" stroke="#ccc" stroke-width="1"/>
    <text x="110.0" y="808.0" text-anchor="middle" fill="#555" font-size="9.5" font-weight="bold">Publication figures</text>
    <rect x="220.0" y="790" width="140" height="28" rx="7" fill="#f0f0f0" stroke="#ccc" stroke-width="1"/>
    <text x="290.0" y="803.0" text-anchor="middle" fill="#555" font-size="8.5" font-weight="bold">Dash dashboard</text>
    <text x="290.0" y="815.0" text-anchor="middle" fill="#888" font-size="8.0">Parquet files</text>
    <circle cx="366.0" cy="799" r="8" fill="#fff" stroke="#999" stroke-width="1"/>
    <text x="366.0" y="803" text-anchor="middle" fill="#333" font-size="7.5" font-weight="bold">O</text>
    <text x="220.0" y="828" fill="#aaa" font-size="7.0" font-style="italic">Open terminal and type</text>
    <text x="220.0" y="838" fill="#aaa" font-size="7.0" font-style="italic">'dash-freely'</text>
    <rect x="400.0" y="790" width="140" height="28" rx="7" fill="#f0f0f0" stroke="#ccc" stroke-width="1"/>
    <text x="470.0" y="803.0" text-anchor="middle" fill="#555" font-size="8.5" font-weight="bold">Trajectory viewer</text>
    <text x="470.0" y="815.0" text-anchor="middle" fill="#888" font-size="8.0">.json.gz</text>
    <circle cx="546.0" cy="799" r="8" fill="#fff" stroke="#999" stroke-width="1"/>
    <text x="546.0" y="803" text-anchor="middle" fill="#333" font-size="7.5" font-weight="bold">P</text>
    <text x="400.0" y="828" fill="#aaa" font-size="7.0" font-style="italic">HTML and compressed JSON data</text>
    <text x="400.0" y="838" fill="#aaa" font-size="7.0" font-style="italic">files</text>
    <rect x="10" y="850" width="560" height="30" rx="4" fill="#fafafa" stroke="#ddd" stroke-width="1"/>
    <text x="22" y="868" fill="#666" font-size="7.5" font-weight="bold">Legend:</text>
    <rect x="70" y="858" width="28" height="14" rx="4" fill="#3B6FA0"/>
    <text x="105" y="869" fill="#666" font-size="7">Major step</text>
    <rect x="155" y="858" width="28" height="14" rx="4" fill="#5A8EBE"/>
    <text x="190" y="869" fill="#666" font-size="7">Processing fn</text>
    <rect x="245" y="858" width="28" height="14" rx="4" fill="#7BADD4"/>
    <text x="280" y="869" fill="#666" font-size="7">Output script</text>
    <rect x="335" y="858" width="28" height="14" rx="6" fill="#f0f0f0" stroke="#ccc" stroke-width="1"/>
    <text x="370" y="869" fill="#666" font-size="7">Data / file</text>
    <circle cx="415" cy="865" r="7" fill="#e8983e"/>
    <text x="425" y="869" fill="#666" font-size="7">Data ref</text>
    <circle cx="470" cy="865" r="7" fill="#4caf50"/>
    <text x="480" y="869" fill="#666" font-size="7">Output ref</text>
</svg>